<?xml version="1.0" encoding="UTF-8"?>
<svg id="Layer_1" data-name="Layer 1" xmlns="http://www.w3.org/2000/svg" viewBox="0 0 92.44 87.11">
  <defs>
    <style>
      .cls-1 {
        fill: #231f20;
      }
    </style>
  </defs>
  <path class="cls-1" d="M60.74,7.56H31.71c-6.39,0-11.56,5.18-11.56,11.56v48.89c0,6.38,5.17,11.55,11.56,11.55h29.03c6.38,0,11.56-5.17,11.56-11.55V19.12c0-6.38-5.18-11.56-11.56-11.56Zm5.85,20.85c0,9.95-8.05,18-18,18h4.78c7.26,0,13.16,5.86,13.22,13.12v.11c0,.2,0,.39-.02,.58-.43,7.06-6.26,12.64-13.42,12.64h-15.56c-7.15,0-12.99-5.58-13.42-12.64-.02-.19-.02-.39-.02-.58v-.11c.03-3.61,1.5-6.87,3.87-9.25,2.39-2.39,5.7-3.87,9.35-3.87h4.78c-9.94,0-18-8.05-18-18v-6.36c0-5.42,4.39-9.81,9.81-9.81h22.82c5.42,0,9.81,4.39,9.81,9.81v6.36Z"/>
  <path class="cls-1" d="M55.91,17.08h-21.07c-2.07,0-3.93,.83-5.28,2.19-1.35,1.35-2.19,3.22-2.19,5.28,0,9.94,8.06,18,18,18,4.97,0,9.47-2.02,12.73-5.27,3.25-3.26,5.27-7.76,5.27-12.73,0-4.13-3.34-7.47-7.46-7.47Zm-6.57,2.95c1.17,0,2.11,.95,2.11,2.11s-.95,2.11-2.11,2.11-2.11-.95-2.11-2.11,.95-2.11,2.11-2.11Zm-7.94,0c1.17,0,2.11,.95,2.11,2.11s-.95,2.11-2.11,2.11-2.11-.95-2.11-2.11,.95-2.11,2.11-2.11Zm-6.44,9.22c0-1.73,1.4-3.13,3.13-3.13s3.13,1.4,3.13,3.13-1.4,3.13-3.13,3.13-3.13-1.4-3.13-3.13Zm6.53,10.69c-1.73,0-3.13-1.4-3.13-3.13s1.4-3.13,3.13-3.13,3.13,1.4,3.13,3.13-1.4,3.13-3.13,3.13Zm1.24-10.69c0-1.73,1.4-3.13,3.13-3.13s3.13,1.4,3.13,3.13-1.4,3.13-3.13,3.13-3.13-1.4-3.13-3.13Zm6.53,10.69c-1.73,0-3.13-1.4-3.13-3.13s1.4-3.13,3.13-3.13,3.13,1.4,3.13,3.13-1.4,3.13-3.13,3.13Zm4.37-7.56c-1.73,0-3.13-1.4-3.13-3.13s1.4-3.13,3.13-3.13,3.13,1.4,3.13,3.13-1.4,3.13-3.13,3.13Z"/>
  <path class="cls-1" d="M30.93,53.19c-1.65,1.65-2.67,3.93-2.67,6.45,0,5.03,4.08,9.11,9.11,9.11h16c2.52,0,4.79-1.02,6.44-2.67,1.65-1.65,2.67-3.93,2.67-6.44,0-5.04-4.08-9.11-9.11-9.11h-16c-2.52,0-4.79,1.02-6.44,2.66Zm23.2,1.25c2.87,0,5.2,2.33,5.2,5.2s-2.33,5.2-5.2,5.2-5.2-2.33-5.2-5.2,2.33-5.2,5.2-5.2Zm-11.36,5.2c0,2.87-2.33,5.2-5.2,5.2s-5.2-2.33-5.2-5.2,2.33-5.2,5.2-5.2,5.2,2.33,5.2,5.2Z"/>
</svg>