<?xml version="1.0" encoding="UTF-8"?>
<svg id="Layer_1" data-name="Layer 1" xmlns="http://www.w3.org/2000/svg" viewBox="0 0 92.44 87.11">
  <defs>
    <style>
      .cls-1 {
        fill: #231f20;
      }
    </style>
  </defs>
  <path class="cls-1" d="M66.85,12.15H27.82c-9.79,6.38-16.27,17.44-16.27,30,0,19.76,16.02,35.78,35.78,35.78s35.78-16.02,35.78-35.78c0-12.56-6.47-23.61-16.26-30Zm-19.52,61.28c-17.06,0-30.89-13.83-30.89-30.88,0-10.85,5.6-20.4,14.05-25.9h33.69c8.45,5.51,14.04,15.05,14.04,25.9,0,17.05-13.83,30.88-30.89,30.88Z"/>
  <path class="cls-1" d="M61.52,21.14h-28.36c-7.11,4.64-11.82,12.67-11.82,21.8,0,14.36,11.64,26,26,26s26-11.64,26-26c0-9.13-4.7-17.16-11.82-21.8Zm-3.43,3.34c1.86,0,3.36,1.5,3.36,3.36s-1.5,3.36-3.36,3.36-3.36-1.5-3.36-3.36,1.5-3.36,3.36-3.36Zm-10.75,0c1.86,0,3.36,1.5,3.36,3.36s-1.5,3.36-3.36,3.36-3.36-1.5-3.36-3.36,1.5-3.36,3.36-3.36Zm0,8.56c1.86,0,3.36,1.5,3.36,3.36s-1.5,3.36-3.36,3.36-3.36-1.5-3.36-3.36,1.5-3.36,3.36-3.36Zm-10.75-8.56c1.86,0,3.36,1.5,3.36,3.36s-1.5,3.36-3.36,3.36-3.36-1.5-3.36-3.36,1.5-3.36,3.36-3.36Zm0,39.94c-1.86,0-3.36-1.5-3.36-3.36s1.5-3.36,3.36-3.36,3.36,1.5,3.36,3.36-1.5,3.36-3.36,3.36Zm-2.69-12.28c-3.93,0-7.11-3.18-7.11-7.11s3.18-7.11,7.11-7.11,7.11,3.18,7.11,7.11-3.18,7.11-7.11,7.11Zm13.44,13.36c-2.45,0-4.44-1.99-4.44-4.44s1.99-4.44,4.44-4.44,4.44,1.99,4.44,4.44-1.99,4.44-4.44,4.44Zm10.75-1.08c-1.86,0-3.36-1.5-3.36-3.36s1.5-3.36,3.36-3.36,3.36,1.5,3.36,3.36-1.5,3.36-3.36,3.36Zm2.69-12.28c-3.93,0-7.11-3.18-7.11-7.11s3.18-7.11,7.11-7.11,7.11,3.18,7.11,7.11-3.18,7.11-7.11,7.11Z"/>
</svg>