<svg width="20" height="20" viewBox="0 0 20 20" fill="none" xmlns="http://www.w3.org/2000/svg">
<path fill-rule="evenodd" clip-rule="evenodd" d="M3 0C1.34315 0 0 1.34315 0 3V18C0 19.1046 0.895433 20 2 20H8.32258C9.42715 20 10.3226 19.1046 10.3226 18V11.3504C10.4533 11.5703 10.6933 11.7177 10.9678 11.7177C11.1443 11.7177 11.4486 11.7866 11.695 11.9936C11.9123 12.1761 12.1532 12.5219 12.1532 13.2258V13.2325V13.2392V13.2459V13.2525V13.2592V13.2659V13.2725V13.2792V13.2859V13.2925V13.2992V13.3059V13.3125V13.3192V13.3258V13.3325V13.3391V13.3457V13.3524V13.359V13.3656V13.3723V13.3789V13.3855V13.3922V13.3988V13.4054V13.412V13.4186V13.4252V13.4318V13.4384V13.445V13.4516V13.4582V13.4648V13.4714V13.478V13.4846V13.4911V13.4977V13.5043V13.5109V13.5174V13.524V13.5306V13.5371V13.5437V13.5502V13.5568V13.5633V13.5699V13.5764V13.5829V13.5895V13.596V13.6025V13.6091V13.6156V13.6221V13.6286V13.6351V13.6417V13.6482V13.6547V13.6612V13.6677V13.6742V13.6807V13.6872V13.6936V13.7001V13.7066V13.7131V13.7196V13.726V13.7325V13.739V13.7454V13.7519V13.7583V13.7648V13.7712V13.7777V13.7841V13.7906V13.797V13.8034V13.8099V13.8163V13.8227V13.8291V13.8355V13.842V13.8484V13.8548V13.8612V13.8676V13.874V13.8804V13.8868V13.8931V13.8995V13.9059V13.9123V13.9187V13.925V13.9314V13.9378V13.9441V13.9505V13.9568V13.9632V13.9695V13.9759V13.9822V13.9885V13.9949V14.0012V14.0075V14.0138V14.0201V14.0265V14.0328V14.0391V14.0454V14.0517V14.058V14.0643V14.0706V14.0768V14.0831V14.0894V14.0957V14.102V14.1082V14.1145V14.1207V14.127V14.1333V14.1395V14.1457V14.152V14.1582V14.1645V14.1707V14.1769V14.1831V14.1894V14.1956V14.2018V14.208V14.2142V14.2204V14.2266V14.2328V14.239V14.2452V14.2513V14.2575V14.2637V14.2699V14.276V14.2822V14.2884V14.2945V14.3007V14.3068V14.3129V14.3191V14.3252V14.3314V14.3375V14.3436V14.3497V14.3558V14.3619V14.3681V14.3742V14.3803V14.3864V14.3924V14.3985V14.4046V14.4107V14.4168V14.4228V14.4289V14.435V14.441V14.4471V14.4531V14.4592V14.4652V14.4713V14.4773V14.4833V14.4894V14.4954V14.5014V14.5074V14.5134V14.5194V14.5254V14.5314V14.5374V14.5434V14.5494V14.5554V14.5613V14.5673V14.5733V14.5793V14.5852V14.5912V14.5971V14.6031V14.609V14.6149V14.6209V14.6268V14.6327V14.6386V14.6446V14.6505V14.6564V14.6623V14.6682V14.6741V14.68V14.6859V14.6917V14.6976V14.7035V14.7094V14.7152V14.7211V14.7269V14.7328V14.7386V14.7445V14.7503V14.7561V14.762V14.7678V14.7736V14.7794V14.7852V14.791V14.7968V14.8026V14.8084V14.8142V14.82V14.8258V14.8315V14.8373V14.8431V14.8488V14.8546V14.8603V14.8661V14.8718V14.8776V14.8833V14.889V14.8947V14.9005V14.9062V14.9119V14.9176V14.9233V14.929V14.9347V14.9403V14.946V14.9517V14.9574V14.963V14.9687V14.9744V14.98V14.9857V14.9913V14.9969V15.0026V15.0082V15.0138V15.0194V15.025V15.0306V15.0362V15.0418V15.0474V15.053V15.0586V15.0642V15.0698V15.0753V15.0809V15.0865V15.092V15.0976V15.1031V15.1086V15.1142V15.1197V15.1252V15.1307V15.1362V15.1418V15.1473V15.1528V15.1583V15.1637V15.1692V15.1747V15.1802V15.1856V15.1911V15.1966V15.202V15.2075V15.2129V15.2183V15.2238V15.2292V15.2346V15.24V15.2454V15.2509V15.2563V15.2616V15.267V15.2724V15.2778V15.2832V15.2885V15.2939V15.2993V15.3046V15.31V15.3153V15.3207V15.326V15.3313V15.3366V15.3419V15.3473V15.3526V15.3579V15.3632V15.3685V15.3737V15.379V15.3843V15.3896V15.3948V15.4001V15.4053V15.4106V15.4158V15.421V15.4263V15.4315V15.4367V15.4419V15.4471V15.4523V15.4575V15.4627V15.4679V15.4731V15.4783V15.4834V15.4886V15.4938V15.4989V15.5041V15.5092V15.5143V15.5195V15.5246V15.5297V15.5348V15.5399V15.545V15.5501V15.5552V15.5603V15.5654V15.5705V15.5755V15.5806V15.5857V15.5907V15.5958V15.6008V15.6058V15.6109V15.6159V15.6209V15.6259V15.6309V15.6359V15.6409V15.6459V15.6509V15.6559V15.6608V15.6658V15.6707V15.6757V15.6806V15.6856V15.6905V15.6954V15.7004V15.7053V15.7102V15.7151V15.72V15.7249V15.7298V15.7347V15.7395V15.7444V15.7493V15.7541V15.759V15.7638V15.7687V15.7735V15.7783V15.7832V15.788V15.7928V15.7976V15.8024V15.8072V15.812V15.8167V15.8215V15.8263V15.831V15.8358V15.8406V15.8453V15.85V15.8548V15.8595V15.8642V15.8689V15.8736V15.8783V15.883V15.8877V15.8924V15.8971V15.9017V15.9064V15.9111V15.9157V15.9203V15.925V15.9296V15.9342V15.9389V15.9435V15.9481V15.9527V15.9573V15.9619V15.9664V15.971V15.9756V15.9801V15.9847V15.9892V15.9938V15.9983V16.0029V16.0074V16.0119V16.0164V16.0209V16.0254V16.0299V16.0344V16.0389V16.0433V16.0478V16.0523V16.0567V16.0612V16.0656V16.07V16.0745V16.0789V16.0833V16.0877V16.0921V16.0965V16.1009V16.1053V16.1096V16.114V16.1184V16.1227V16.1271V16.1314V16.1357C12.1532 16.8403 12.3374 17.8392 13.2014 18.3837C13.9299 18.8429 14.9697 19.0809 16.1173 18.5081C17.2052 17.9651 17.5242 16.7662 17.5242 15.8541V10.2119C18.5837 9.89063 19.3549 8.90634 19.3549 7.74194V6.80645C19.3549 6.37912 19.0868 6.01439 18.7097 5.87123V4.51613C18.7097 4.15982 18.4208 3.87097 18.0645 3.87097C17.7082 3.87097 17.4194 4.15982 17.4194 4.51613V5.80645H16.129V4.51613C16.129 4.15982 15.8402 3.87097 15.4838 3.87097C15.1275 3.87097 14.8387 4.15982 14.8387 4.51613V5.87125C14.4616 6.01443 14.1936 6.37914 14.1936 6.80645V7.74194C14.1936 8.90634 14.9647 9.89062 16.0242 10.2119V15.8541C16.0242 16.5333 15.7833 16.9983 15.4474 17.166C14.8491 17.4646 14.3678 17.3458 14.0012 17.1147C13.8072 16.9925 13.6532 16.6818 13.6532 16.1357V16.1314V16.1271V16.1227V16.1184V16.114V16.1096V16.1053V16.1009V16.0965V16.0921V16.0877V16.0833V16.0789V16.0745V16.07V16.0656V16.0612V16.0567V16.0523V16.0478V16.0433V16.0389V16.0344V16.0299V16.0254V16.0209V16.0164V16.0119V16.0074V16.0029V15.9983V15.9938V15.9892V15.9847V15.9801V15.9756V15.971V15.9664V15.9619V15.9573V15.9527V15.9481V15.9435V15.9389V15.9342V15.9296V15.925V15.9203V15.9157V15.9111V15.9064V15.9017V15.8971V15.8924V15.8877V15.883V15.8783V15.8736V15.8689V15.8642V15.8595V15.8548V15.85V15.8453V15.8406V15.8358V15.831V15.8263V15.8215V15.8167V15.812V15.8072V15.8024V15.7976V15.7928V15.788V15.7832V15.7783V15.7735V15.7687V15.7638V15.759V15.7541V15.7493V15.7444V15.7395V15.7347V15.7298V15.7249V15.72V15.7151V15.7102V15.7053V15.7004V15.6954V15.6905V15.6856V15.6806V15.6757V15.6707V15.6658V15.6608V15.6559V15.6509V15.6459V15.6409V15.6359V15.6309V15.6259V15.6209V15.6159V15.6109V15.6058V15.6008V15.5958V15.5907V15.5857V15.5806V15.5755V15.5705V15.5654V15.5603V15.5552V15.5501V15.545V15.5399V15.5348V15.5297V15.5246V15.5195V15.5143V15.5092V15.5041V15.4989V15.4938V15.4886V15.4834V15.4783V15.4731V15.4679V15.4627V15.4575V15.4523V15.4471V15.4419V15.4367V15.4315V15.4263V15.421V15.4158V15.4106V15.4053V15.4001V15.3948V15.3896V15.3843V15.379V15.3737V15.3685V15.3632V15.3579V15.3526V15.3473V15.3419V15.3366V15.3313V15.326V15.3207V15.3153V15.31V15.3046V15.2993V15.2939V15.2885V15.2832V15.2778V15.2724V15.267V15.2616V15.2563V15.2509V15.2454V15.24V15.2346V15.2292V15.2238V15.2183V15.2129V15.2075V15.202V15.1966V15.1911V15.1856V15.1802V15.1747V15.1692V15.1637V15.1583V15.1528V15.1473V15.1418V15.1362V15.1307V15.1252V15.1197V15.1142V15.1086V15.1031V15.0976V15.092V15.0865V15.0809V15.0753V15.0698V15.0642V15.0586V15.053V15.0474V15.0418V15.0362V15.0306V15.025V15.0194V15.0138V15.0082V15.0026V14.9969V14.9913V14.9857V14.98V14.9744V14.9687V14.963V14.9574V14.9517V14.946V14.9403V14.9347V14.929V14.9233V14.9176V14.9119V14.9062V14.9005V14.8947V14.889V14.8833V14.8776V14.8718V14.8661V14.8603V14.8546V14.8488V14.8431V14.8373V14.8315V14.8258V14.82V14.8142V14.8084V14.8026V14.7968V14.791V14.7852V14.7794V14.7736V14.7678V14.762V14.7561V14.7503V14.7445V14.7386V14.7328V14.7269V14.7211V14.7152V14.7094V14.7035V14.6976V14.6917V14.6859V14.68V14.6741V14.6682V14.6623V14.6564V14.6505V14.6446V14.6386V14.6327V14.6268V14.6209V14.6149V14.609V14.6031V14.5971V14.5912V14.5852V14.5793V14.5733V14.5673V14.5613V14.5554V14.5494V14.5434V14.5374V14.5314V14.5254V14.5194V14.5134V14.5074V14.5014V14.4954V14.4894V14.4833V14.4773V14.4713V14.4652V14.4592V14.4531V14.4471V14.441V14.435V14.4289V14.4228V14.4168V14.4107V14.4046V14.3985V14.3924V14.3864V14.3803V14.3742V14.3681V14.3619V14.3558V14.3497V14.3436V14.3375V14.3314V14.3252V14.3191V14.3129V14.3068V14.3007V14.2945V14.2884V14.2822V14.276V14.2699V14.2637V14.2575V14.2513V14.2452V14.239V14.2328V14.2266V14.2204V14.2142V14.208V14.2018V14.1956V14.1894V14.1831V14.1769V14.1707V14.1645V14.1582V14.152V14.1457V14.1395V14.1333V14.127V14.1207V14.1145V14.1082V14.102V14.0957V14.0894V14.0831V14.0768V14.0706V14.0643V14.058V14.0517V14.0454V14.0391V14.0328V14.0265V14.0201V14.0138V14.0075V14.0012V13.9949V13.9885V13.9822V13.9759V13.9695V13.9632V13.9568V13.9505V13.9441V13.9378V13.9314V13.925V13.9187V13.9123V13.9059V13.8995V13.8931V13.8868V13.8804V13.874V13.8676V13.8612V13.8548V13.8484V13.842V13.8355V13.8291V13.8227V13.8163V13.8099V13.8034V13.797V13.7906V13.7841V13.7777V13.7712V13.7648V13.7583V13.7519V13.7454V13.739V13.7325V13.726V13.7196V13.7131V13.7066V13.7001V13.6936V13.6872V13.6807V13.6742V13.6677V13.6612V13.6547V13.6482V13.6417V13.6351V13.6286V13.6221V13.6156V13.6091V13.6025V13.596V13.5895V13.5829V13.5764V13.5699V13.5633V13.5568V13.5502V13.5437V13.5371V13.5306V13.524V13.5174V13.5109V13.5043V13.4977V13.4911V13.4846V13.478V13.4714V13.4648V13.4582V13.4516V13.445V13.4384V13.4318V13.4252V13.4186V13.412V13.4054V13.3988V13.3922V13.3855V13.3789V13.3723V13.3656V13.359V13.3524V13.3457V13.3391V13.3325V13.3258V13.3192V13.3125V13.3059V13.2992V13.2925V13.2859V13.2792V13.2725V13.2659V13.2592V13.2525V13.2459V13.2392V13.2325V13.2258C13.6532 12.1233 13.249 11.34 12.6598 10.8451C12.0999 10.3747 11.4363 10.2177 10.9678 10.2177C10.6933 10.2177 10.4533 10.3651 10.3226 10.5851V3C10.3226 1.34315 8.97943 0 7.32258 0H3ZM4.19355 3.22581C2.94645 3.22581 1.93548 4.23678 1.93548 5.48387C1.93548 6.73097 2.94645 7.74194 4.19355 7.74194H6.12903C7.37613 7.74194 8.3871 6.73097 8.3871 5.48387C8.3871 4.23678 7.37613 3.22581 6.12903 3.22581H4.19355ZM5.74887 10.2212C5.98304 10.3675 6.05422 10.676 5.90787 10.9102L4.77309 12.7258H6.12903H6.99062L6.56315 13.4739L5.27283 15.7319C5.13583 15.9717 4.8304 16.055 4.59064 15.918C4.35088 15.781 4.26758 15.4756 4.40459 15.2358L5.26744 13.7258H3.87097H2.96884L3.44697 12.9608L5.05987 10.3802C5.20623 10.146 5.5147 10.0748 5.74887 10.2212Z" fill="#FFB140"/>
</svg>
