<svg width="10" height="20" viewBox="0 0 10 20" fill="none" xmlns="http://www.w3.org/2000/svg">
<path d="M7.5 0C6.125 0 5 1.125 5 2.5C5 3.875 6.125 5 7.5 5C8.875 5 10 3.875 10 2.5C10 1.125 8.875 0 7.5 0ZM3.75 6.25C1.675 6.25 0 7.925 0 10H2.5C2.5 9.3 3.05 8.75 3.75 8.75C4.45 8.75 5 9.3 5 10C5 10.7 2.5 14.1 2.5 16.25C2.5 18.4 4.175 20 6.25 20C8.325 20 10 18.325 10 16.25H7.5C7.5 16.95 6.95 17.5 6.25 17.5C5.55 17.5 5 16.95 5 16.25C5 15.35 7.5 11.65 7.5 10C7.5 7.975 5.825 6.25 3.75 6.25Z" fill="#FFB140"/>
</svg>
